<?xml version="1.0" standalone="no"?>
<!DOCTYPE svg PUBLIC "-//W3C//DTD SVG 20010904//EN"
 "http://www.w3.org/TR/2001/REC-SVG-20010904/DTD/svg10.dtd">
<svg version="1.0" xmlns="http://www.w3.org/2000/svg"
 width="656.000000pt" height="644.000000pt" viewBox="0 0 656.000000 644.000000"
 preserveAspectRatio="xMidYMid meet">

<g transform="translate(0.000000,644.000000) scale(0.100000,-0.100000)"
fill="#ffffff" stroke="none">
<path d="M3425 6333 c-150 -20 -359 -75 -469 -123 -50 -22 -225 -110 -389
-195 -164 -85 -301 -155 -304 -155 -12 0 -228 -113 -312 -164 -50 -31 -104
-63 -119 -72 -63 -37 38 40 213 164 392 276 630 461 613 477 -13 14 -283 -115
-403 -193 -113 -72 -181 -131 -345 -299 -85 -87 -268 -270 -406 -408 -138
-137 -274 -277 -303 -310 l-52 -60 52 75 c29 41 100 138 158 215 185 244 414
580 408 599 -8 23 -28 12 -109 -61 -109 -99 -223 -226 -290 -322 -29 -42 -135
-240 -235 -441 -184 -368 -305 -592 -323 -598 -18 -6 -10 35 26 134 32 90 96
297 160 524 25 87 33 186 14 175 -19 -12 -124 -200 -177 -317 -63 -138 -104
-293 -128 -473 -47 -365 -78 -570 -100 -667 -14 -58 -34 -165 -44 -237 -10
-73 -21 -134 -25 -138 -3 -3 -6 119 -6 273 0 478 -21 756 -55 746 -12 -3 -19
-25 -51 -182 -21 -97 -27 -164 -31 -300 l-5 -175 46 -230 c63 -321 103 -564
110 -671 6 -82 28 -243 41 -301 4 -16 1 -21 -9 -17 -7 3 -26 49 -41 102 -49
174 -86 284 -166 490 -103 264 -142 342 -172 342 -16 0 0 -185 28 -326 46
-230 81 -314 237 -581 112 -194 248 -455 287 -555 32 -80 133 -286 197 -398
59 -105 8 -40 -131 165 -133 195 -215 303 -372 486 -131 153 -201 219 -231
219 -7 0 -12 -2 -12 -5 0 -18 71 -179 120 -271 110 -209 192 -306 425 -508
198 -171 351 -322 471 -463 57 -66 161 -176 231 -244 142 -136 127 -128 -135
73 -167 129 -284 206 -492 329 -192 113 -231 131 -276 127 l-37 -3 50 -60
c190 -227 408 -389 644 -479 247 -94 514 -223 690 -334 79 -49 206 -120 282
-157 75 -37 137 -69 137 -70 0 -6 -135 38 -219 70 -167 63 -368 124 -496 150
-72 15 -181 37 -242 51 -124 27 -206 30 -241 10 -23 -12 -22 -14 50 -58 185
-115 406 -206 567 -233 47 -8 174 -19 281 -25 253 -13 494 -44 639 -82 166
-43 340 -78 461 -93 100 -13 89 -13 -240 -12 -336 1 -351 0 -580 -31 -129 -18
-258 -39 -285 -47 -49 -14 -106 -58 -88 -68 14 -8 183 -45 268 -58 102 -16
360 -17 445 -1 36 7 133 33 215 57 296 87 594 145 748 145 162 0 446 44 657
101 156 43 529 190 550 217 3 4 40 24 82 45 155 77 518 337 518 372 0 28 -46
16 -91 -23 -67 -59 -194 -153 -294 -218 -49 -33 -90 -64 -90 -69 0 -5 -18 -16
-40 -23 -22 -7 -49 -22 -61 -33 -11 -10 -33 -19 -48 -19 -18 0 -25 -4 -20 -12
4 -6 3 -8 -3 -5 -13 8 -183 -70 -183 -85 0 -5 -7 -7 -16 -4 -9 4 -32 -3 -51
-14 -19 -11 -43 -20 -53 -20 -11 0 -41 -9 -68 -19 -82 -32 -364 -99 -509 -121
-251 -37 -649 -37 -838 2 -71 14 -245 99 -324 157 -85 64 -157 139 -256 271
-96 128 -374 454 -391 458 -17 4 -27 -51 -19 -106 14 -94 109 -291 186 -385
96 -117 257 -226 442 -298 59 -23 106 -44 104 -46 -7 -6 -213 56 -332 100
-236 88 -310 133 -441 269 -106 109 -152 186 -239 398 -51 124 -242 540 -255
554 -5 4 -17 -7 -27 -25 -25 -47 -23 -186 5 -302 63 -258 171 -412 442 -630
50 -40 3 -16 -85 43 -203 137 -382 296 -446 397 -111 176 -151 298 -184 561
-13 103 -37 267 -54 365 -17 98 -31 190 -31 203 0 36 -29 28 -54 -15 -28 -48
-45 -131 -52 -257 -14 -232 42 -419 195 -652 71 -108 66 -111 -17 -9 -166 203
-270 377 -310 519 -57 200 -64 339 -27 548 8 47 29 204 46 349 16 145 32 268
35 273 7 11 0 10 -28 -3 -54 -24 -127 -172 -170 -346 -29 -114 -29 -314 -1
-446 18 -83 16 -119 -5 -80 -15 28 -79 238 -102 333 -49 206 -14 455 97 705
25 55 82 191 128 302 46 111 93 219 103 240 11 21 17 44 15 51 -26 71 -241
-192 -318 -387 -40 -103 -67 -245 -73 -386 -8 -201 -24 -119 -25 125 0 228 11
320 53 451 54 165 119 273 280 469 48 58 141 173 207 255 66 83 130 159 142
169 11 11 21 25 21 33 0 37 -105 -10 -210 -94 -195 -156 -299 -310 -396 -583
-45 -125 -35 -59 17 123 113 394 251 593 554 799 50 34 158 109 240 168 83 58
180 125 218 149 37 24 67 47 67 52 0 16 -86 9 -150 -12 -88 -29 -243 -108
-315 -161 -77 -56 -179 -158 -252 -251 -31 -40 -58 -74 -60 -76 -2 -2 -5 -2
-8 1 -8 8 135 218 221 324 107 135 269 261 428 334 44 20 241 91 436 156 195
65 357 120 360 122 9 6 -25 22 -60 29 -49 9 -216 -11 -335 -41 -131 -33 -296
-116 -444 -224 -131 -95 -115 -71 33 51 123 102 261 199 346 242 92 46 259
101 363 120 74 12 651 44 822 45 l50 0 -25 20 c-50 38 -233 70 -405 70 -111 0
-151 -6 -338 -47 -21 -4 -26 -2 -22 9 10 25 278 108 405 125 142 19 325 12
460 -16 144 -30 534 -127 629 -155 46 -14 87 -24 89 -21 23 22 -160 124 -320
179 -130 45 -204 57 -403 64 -234 7 -194 18 105 28 300 10 551 -18 833 -91
204 -53 463 -171 746 -340 150 -90 203 -127 339 -237 46 -38 90 -68 98 -68 43
0 -18 91 -137 205 -230 218 -482 336 -955 444 -268 62 -409 86 -574 100 -69 6
-141 13 -160 15 -19 1 186 4 455 5 438 1 534 6 515 25 -9 9 -202 45 -330 62
-171 22 -295 15 -643 -41 -159 -25 -307 -49 -330 -55 -23 -5 -82 -14 -132 -20
-134 -17 -248 -38 -358 -67 -54 -14 -100 -23 -102 -21 -3 2 77 31 178 62 733
234 797 256 797 278 0 11 -57 8 -185 -9z"/>
<path d="M5757 4976 c-9 -22 19 -42 37 -26 19 15 10 40 -14 40 -10 0 -20 -6
-23 -14z"/>
<path d="M5963 4688 c-22 -28 -22 -49 -2 -69 30 -30 78 -11 79 33 0 37 -56 63
-77 36z"/>
<path d="M3265 4635 c197 -51 337 -111 489 -212 165 -109 350 -304 455 -476
l24 -39 113 113 112 112 -41 48 c-95 110 -258 236 -406 312 -231 119 -431 167
-691 166 l-145 -1 90 -23z"/>
<path d="M6117 4352 c-44 -49 9 -124 71 -101 43 16 48 85 8 111 -20 14 -63 8
-79 -10z"/>
<path d="M2735 4250 c-149 -30 -256 -72 -375 -148 -423 -267 -604 -788 -441
-1265 105 -307 350 -552 661 -660 136 -48 194 -57 365 -56 l160 1 -103 34
c-418 141 -696 477 -752 907 -14 106 -13 170 5 285 62 414 352 756 748 879 71
22 84 29 66 34 -48 14 -244 7 -334 -11z"/>
<path d="M6235 3995 c-39 -39 -32 -86 17 -111 51 -26 108 12 108 72 0 24 -47
64 -75 64 -14 0 -37 -11 -50 -25z"/>
<path d="M6305 3625 c-27 -26 -32 -70 -12 -96 15 -20 51 -39 72 -39 26 0 75
55 75 85 0 36 -41 75 -80 75 -19 0 -40 -9 -55 -25z"/>
<path d="M3525 3190 l-189 -190 532 0 533 0 -6 -47 c-42 -300 -214 -620 -453
-844 -149 -139 -361 -265 -537 -320 -74 -23 -177 -49 -197 -50 -23 0 -22 0 2
-11 33 -14 281 -3 385 17 528 101 964 484 1130 989 59 180 85 387 70 559 l-7
87 -536 0 -537 0 -190 -190z"/>
<path d="M6339 3260 c-29 -17 -43 -66 -29 -100 34 -83 150 -58 150 31 0 61
-68 100 -121 69z"/>
<path d="M6324 2878 c-24 -11 -44 -48 -44 -79 0 -31 44 -69 80 -69 39 0 80 39
80 75 0 31 -50 85 -77 84 -10 0 -28 -5 -39 -11z"/>
<path d="M6255 2498 c-49 -26 -58 -69 -24 -112 51 -65 153 0 123 79 -6 15 -54
45 -71 45 -4 0 -17 -6 -28 -12z"/>
<path d="M6117 2112 c-36 -40 -9 -102 44 -102 30 0 43 9 58 37 31 59 -57 115
-102 65z"/>
<path d="M5960 1760 c-25 -25 -25 -32 -1 -61 16 -20 23 -22 47 -14 38 14 45
56 12 79 -29 20 -34 20 -58 -4z"/>
<path d="M5760 1411 c0 -26 17 -36 35 -21 18 15 8 40 -16 40 -12 0 -19 -7 -19
-19z"/>
</g>
</svg>
